<?xml version="1.0" encoding="utf-8"?>
<!-- Generator: Adobe Illustrator 24.3.0, SVG Export Plug-In . SVG Version: 6.00 Build 0)  -->
<svg version="1.1" id="Layer_1" xmlns="http://www.w3.org/2000/svg" xmlns:xlink="http://www.w3.org/1999/xlink" x="0px" y="0px"
	 viewBox="0 0 25 35.5" style="enable-background:new 0 0 25 35.5;" xml:space="preserve">
<style type="text/css">
	.st0{fill:#3F59A7;}
</style>
<g id="_x23_020201ff_1_">
	<path class="st0" d="M10.61,7.05c1.17-1.11,2.83-1.49,4.4-1.54C16.68,5.5,18.34,5.5,20,5.51c0.01,1.75,0.01,3.5,0,5.25
		c-1.07,0-2.15,0-3.22,0c-0.68-0.04-1.38,0.47-1.5,1.15c-0.02,1.17-0.01,2.34-0.01,3.52c1.57,0.01,3.15,0,4.72,0
		c-0.12,1.7-0.33,3.38-0.57,5.06c-1.39,0.01-2.78,0-4.17,0.01c-0.01,5,0.01,10-0.01,15c-2.06,0.01-4.13,0-6.19,0.01
		c-0.04-5,0-10-0.02-15C8.01,20.49,7,20.5,6,20.49c0-1.68,0-3.36,0-5.04c1.01-0.01,2.01,0,3.02-0.01c0.03-1.63-0.03-3.27,0.03-4.9
		C9.15,9.24,9.65,7.94,10.61,7.05z"/>
</g>
</svg>
