<?xml version="1.0" encoding="utf-8"?>
<!-- Generator: Adobe Illustrator 24.3.0, SVG Export Plug-In . SVG Version: 6.00 Build 0)  -->
<svg version="1.1" id="Layer_1" xmlns="http://www.w3.org/2000/svg" xmlns:xlink="http://www.w3.org/1999/xlink" x="0px" y="0px"
	 viewBox="0 0 47 44" style="enable-background:new 0 0 47 44;" xml:space="preserve">
<style type="text/css">
	.st0{fill:#3F59A7;}
</style>
<path class="st0" d="M29.41,30.86v-3.54c0-0.75-0.22-1.13-0.65-1.13c-0.26,0-0.5,0.12-0.74,0.36v5.05c0.24,0.24,0.49,0.36,0.74,0.36
	C29.19,31.97,29.41,31.6,29.41,30.86L29.41,30.86z M33.56,28.11h1.49v-0.77c0-0.77-0.25-1.15-0.74-1.15c-0.5,0-0.74,0.38-0.74,1.15
	V28.11z M20.68,22.11v1.58h-1.8v9.54H17.2v-9.54h-1.76v-1.58H20.68L20.68,22.11z M25.21,24.95v8.28H23.7v-0.9
	c-0.59,0.68-1.16,1.02-1.71,1.02c-0.5,0-0.81-0.21-0.95-0.63c-0.09-0.24-0.14-0.65-0.14-1.22v-6.54h1.49v6.09
	c0,0.36,0.01,0.56,0.02,0.59c0.02,0.23,0.13,0.34,0.34,0.34c0.3,0,0.62-0.23,0.95-0.7v-6.32L25.21,24.95L25.21,24.95z M30.89,27.45
	v3.29c0,0.78-0.05,1.33-0.16,1.65c-0.18,0.63-0.58,0.95-1.2,0.95c-0.53,0-1.04-0.31-1.53-0.92v0.81H26.5V22.11h1.51v3.63
	c0.48-0.6,0.99-0.9,1.53-0.9c0.62,0,1.02,0.32,1.2,0.95C30.84,26.1,30.89,26.66,30.89,27.45z M36.56,30.36v0.2
	c0,0.44-0.02,0.76-0.05,0.97c-0.05,0.33-0.16,0.63-0.34,0.9c-0.41,0.6-1.01,0.9-1.8,0.9c-0.78,0-1.39-0.29-1.83-0.86
	c-0.32-0.41-0.47-1.05-0.47-1.94v-2.91c0-0.89,0.15-1.53,0.45-1.94c0.44-0.57,1.04-0.86,1.8-0.86c0.77,0,1.35,0.29,1.76,0.86
	c0.32,0.42,0.47,1.07,0.47,1.94v1.71h-3v1.47c0,0.77,0.26,1.15,0.77,1.15c0.36,0,0.59-0.2,0.68-0.59c0-0.02,0-0.07,0.01-0.16
	s0.01-0.21,0.01-0.37v-0.48L36.56,30.36L36.56,30.36z M26.38,11.78v3.52c0,0.77-0.24,1.15-0.72,1.15s-0.72-0.38-0.72-1.15v-3.52
	c0-0.78,0.24-1.17,0.72-1.17S26.38,11,26.38,11.78z M38.41,27.86c0-2.66-0.14-4.62-0.43-5.86c-0.15-0.66-0.47-1.21-0.97-1.66
	c-0.5-0.44-1.07-0.7-1.71-0.78c-2.05-0.23-5.14-0.34-9.29-0.34c-4.14,0-7.23,0.11-9.27,0.34c-0.66,0.08-1.24,0.33-1.73,0.78
	c-0.49,0.44-0.81,1-0.96,1.66c-0.3,1.31-0.45,3.26-0.45,5.86c0,2.65,0.15,4.6,0.45,5.86c0.15,0.65,0.47,1.2,0.96,1.65
	c0.49,0.45,1.06,0.71,1.7,0.79c2.06,0.23,5.16,0.34,9.29,0.34c4.14,0,7.23-0.11,9.29-0.34c0.65-0.08,1.21-0.34,1.7-0.79
	c0.49-0.45,0.81-1,0.96-1.65C38.26,32.46,38.41,30.51,38.41,27.86z M21.38,13.18l2.03-6.68h-1.69l-1.15,4.4l-1.2-4.4h-1.76
	l0.54,1.56c0,0,0.17,0.52,0.52,1.56c0.53,1.55,0.87,2.74,1.04,3.56v4.53h1.67V13.18L21.38,13.18z M27.89,15v-2.93
	c0-0.87-0.16-1.53-0.47-1.96c-0.44-0.57-1.02-0.86-1.76-0.86c-0.77,0-1.35,0.29-1.76,0.86c-0.32,0.44-0.47,1.09-0.47,1.96V15
	c0,0.87,0.16,1.53,0.47,1.96c0.41,0.57,0.99,0.86,1.76,0.86c0.74,0,1.32-0.29,1.76-0.86C27.74,16.56,27.89,15.91,27.89,15z
	 M31.98,17.71h1.51V9.36h-1.51v6.38c-0.33,0.47-0.65,0.7-0.95,0.7c-0.23,0-0.35-0.12-0.36-0.36c-0.02-0.03-0.02-0.23-0.02-0.59V9.36
	h-1.51v6.61c0,0.56,0.05,0.97,0.14,1.24c0.17,0.41,0.49,0.61,0.97,0.61c0.54,0,1.12-0.34,1.74-1.02L31.98,17.71L31.98,17.71z"/>
</svg>
